<svg xmlns="http://www.w3.org/2000/svg" width="1440" height="156" fill="none"><g fill="#63BABA" fill-rule="evenodd" clip-rule="evenodd"><path d="M888.138 563.441c54.22 51.426 142.122 51.426 196.342 0l418.14-396.603c54.24-51.436 54.24-134.84 0-186.276-54.22-51.426-142.12-51.426-196.34 0L1118.46 158.71c46.2-51.75 43.57-129.34-7.89-178.148-54.22-51.426-142.12-51.426-196.34 0L496.084 377.165c-54.231 51.437-54.231 134.839 0 186.276 54.219 51.426 142.119 51.426 196.339 0l187.825-178.148c-46.199 51.75-43.569 129.34 7.89 178.148ZM-107.957 117.441c54.22 51.427 142.12 51.427 196.34 0l418.146-396.603c54.231-51.436 54.231-134.839 0-186.276-54.22-51.426-142.12-51.426-196.34 0L-107.957-68.835c-54.231 51.437-54.231 134.84 0 186.276Zm468.782-71.824c54.22 51.426 142.119 51.426 196.339 0l418.147-396.603c54.229-51.436 54.229-134.839 0-186.276-54.22-51.426-142.12-51.426-196.339 0L360.825-140.659c-54.231 51.436-54.231 134.84 0 186.276Z"/></g></svg>